<?xml version="1.0" standalone="no"?><!DOCTYPE svg PUBLIC "-//W3C//DTD SVG 1.1//EN" "http://www.w3.org/Graphics/SVG/1.1/DTD/svg11.dtd"><svg class="icon" viewBox="0 0 1024 1024" version="1.1" xmlns="http://www.w3.org/2000/svg" id="mx_n_1693013346726" xmlns:xlink="http://www.w3.org/1999/xlink" width="200" height="200"><path d="M900.608 197.12c16.896 4.096 28.672 19.456 28.672 36.864v525.312c0 20.992-16.896 37.888-37.888 37.888-2.048 0-4.096 0-5.632-0.512-78.336-12.8-140.8-18.944-187.392-18.944-82.432 0-240.128 47.104-346.112 58.368-62.464 6.144-135.68 6.144-219.136-1.024-19.456-1.536-34.304-17.92-34.304-37.376V271.872c0-20.992 16.896-37.888 37.888-37.888h2.56c93.696 6.656 164.352 6.656 212.48 0 82.432-12.288 248.832-51.2 346.112-58.368 58.368-3.584 125.952 3.072 202.752 21.504z m-144.896 66.56c-35.328 0-64 28.672-64 64v5.12l0.512 5.12-82.432 59.904c-27.648-27.136-65.536-42.496-104.448-41.984-44.032 0-83.968 18.944-111.104 49.152L386.56 414.72l-66.048-38.4v-1.024c0-35.328-28.672-64-64-64s-64 28.672-64 64 28.672 64 64 64c10.24 0 20.48-2.56 29.696-7.168l6.144-3.584 67.584 39.424c-7.68 28.16-6.656 58.88 2.56 87.04l4.096 10.752L288.768 624.64c-30.72-17.408-69.632-6.656-87.04 24.064s-6.656 69.632 24.064 87.04c7.168 4.096 15.36 6.656 23.552 7.68l7.68 0.512 7.68-0.512c28.672-3.584 51.712-26.112 55.296-55.296l0.512-7.68-0.512-6.144L400.384 614.4c8.704 8.704 18.944 16.384 29.184 22.528l10.752 5.632-4.608 41.984h144.896l-5.12-44.544c13.312-6.656 25.088-15.872 35.84-26.112l9.728-10.752 72.192 41.984v1.024c0 35.328 28.672 64 64 64s64-28.672 64-64-28.672-64-64-64c-10.24 0-20.48 2.56-29.696 7.168l-6.144 3.584-71.68-41.472c9.216-30.208 8.704-63.488-1.536-93.696l-4.096-11.776 84.48-61.44c31.744 15.36 70.144 2.048 85.504-29.696s2.048-70.144-29.696-85.504c-10.24-3.584-19.456-5.632-28.672-5.632z m-249.856 301.568l26.112 52.224H479.232c-0.512 0.512 26.624-52.224 26.624-52.224zM443.904 470.528c23.04 0 41.472 18.432 41.472 41.472s-18.432 41.472-41.472 41.472-41.472-18.432-41.472-41.472 18.432-41.472 41.472-41.472z m130.048-0.512c23.04 0 41.472 18.432 41.472 41.472s-18.432 41.472-41.472 41.472-41.472-18.432-41.472-41.472c0-22.528 18.432-41.472 41.472-41.472z" fill="currentColor" ></path></svg>